Simulation
nRows=20
nColumns=15
endheader
time  TH_x TH_y TH_z SC_y  SC_z  SC_x  AC_y  AC_z  AC_x  GH_y  GH_z  GH_yy  EL_x  PS_y
0.0  0.000000  0.000000  0.000000  -17.936528302738378  0.42353782947057095  9.224937689990412  59.61918128711288  -2.9036793988673457  -11.496267504981553  1.7800482262076018  17.9543403676569  30.000266392940546  29.82692006044288  120.000000
0.03  0.000000  0.000000  0.000000  -18.1738704948577  0.4802541540260133  8.85677279509947  60.27629751150536  -1.9305955363948175  -10.912291022508906  3.619250853099689  18.474568805153233  26.76248009766826  29.997933999572755  120.000000
0.06  0.000000  0.000000  0.000000  -18.481204058711633  0.5430407375973552  8.431603800150649  60.91251322540016  -0.9977400410635894  -10.307910537999815  5.474112582012714  19.037423446777048  23.497629809174594  30.220489163093415  120.000000
0.09  0.000000  0.000000  0.000000  -18.816001650343743  0.6094759395820933  7.991806355916794  61.52528541088086  -0.10190393431834636  -9.706827764653482  7.298198311183539  19.65868252461261  20.242589264078756  30.49733028928807  120.000000
0.12  0.000000  0.000000  0.000000  -19.174892607645553  0.687540435793074  7.552880889910209  62.11943950972088  0.7673471460709402  -9.111642278223103  9.100273652578181  20.360983564226494  16.970487834242594  30.840698822016943  120.000000
0.15  0.000000  0.000000  0.000000  -19.541477211375888  0.7769243283113301  7.131852935006091  62.70148543855614  1.6170485761402817  -8.527623463766137  10.865758087767679  21.162632733027692  13.680339541619412  31.24752472353305  120.000000
0.18  0.000000  0.000000  0.000000  -19.906233881779873  0.8761591827665237  6.740487088065929  63.27925610480536  2.451029037300389  -7.955965751262439  12.576250691764045  22.07849360010993  10.381312356856071  31.712427265845218  120.000000
0.21  0.000000  0.000000  0.000000  -20.26056641646938  0.9839436782333361  6.386328293566022  63.85839103992437  3.2687788344393827  -7.395420563362058  14.207532781940712  23.11508874114429  7.091954966997258  32.227106491866245  120.000000
0.24  0.000000  0.000000  0.000000  -20.59515952370918  1.0979493790669308  6.073270974321073  64.44412722991494  4.0689304722546895  -6.844978728450245  15.731793129179186  24.27028662562046  3.8416533132010295  32.78097211383505  120.000000
0.27  0.000000  0.000000  0.000000  -20.903793211434685  1.2172190610233002  5.8027708669234945  65.03863194079435  4.850751980430418  -6.302771650674911  17.125392158136616  25.534502274224625  0.6597785242560178  33.36478766564827  120.000000
0.3  0.000000  0.000000  0.000000  -21.183170938980336  1.342043212019489  5.576603640646515  65.6425929100953  5.614669724524278  -5.769069449455885  18.373707215017863  26.892219622445758  -2.430651474907763  33.968946946565154  120.000000
0.32999999999999996  0.000000  0.000000  0.000000  -21.436298636447486  1.4741187019619253  5.397260248769641  66.25301587836208  6.362969567520823  -5.246306274547806  19.47110231267706  28.323115586002693  -5.414648897840737  34.58401290028197  120.000000
0.36  0.000000  0.000000  0.000000  -21.672524010851586  1.6159492877668558  5.267237343393246  66.86286153260949  7.098463703721002  -4.739722062666432  20.42309995127737  29.804640455869826  -8.289763113446362  35.20055812169195  120.000000
0.39  0.000000  0.000000  0.000000  -21.9085449540633  1.7701366063653716  5.18995004424334  67.46304744764244  7.824115534268848  -4.256385691598914  21.24467177972737  31.312923579471967  -11.063971451512597  35.808704459183836  120.000000
0.42  0.000000  0.000000  0.000000  -22.161362152912204  1.938659426161333  5.168449864605689  68.04245010398544  8.540915251766148  -3.8038242327476945  21.954539638350276  32.82588796847403  -13.75007636409508  36.39952498862252  120.000000
0.44999999999999996  0.000000  0.000000  0.000000  -22.447853560675245  2.1224083307606545  5.20646931200514  68.59200661538448  9.247901889790723  -3.3884368129985254  22.572342369624927  34.32364635606118  -16.361076273240833  36.963791889875985  120.000000
0.48  0.000000  0.000000  0.000000  -22.77759304814736  2.320157873484068  5.306120965773306  69.1045421512585  9.941006949060771  -3.0134473180560164  23.112464693133887  35.790849774969125  -18.902514389855412  37.493691317966636  120.000000
0.51  0.000000  0.000000  0.000000  -23.152501885821238  2.5285947262008595  5.467125206478149  69.57752440801002  10.613437096804324  -2.678114446714522  23.583281577956328  37.21624014882162  -21.37043578538277  37.98194220002278  120.000000
0.54  0.000000  0.000000  0.000000  -23.564740582670503  2.742866975422184  5.6851728768645575  70.01304932143084  11.256351104862768  -2.3773301901541  23.986958373590465  38.592250418127925  -23.749883245362774  38.42208218316048  120.000000
0.57  0.000000  0.000000  0.000000  -23.999976046602217  2.9576436860686157  5.9517663644606085  70.41686529766275  11.859802518504821  -2.1040568460989473  24.319442155448357  39.915926812725736  -26.01751774134714  38.80894433034975  120.000000
